<?xml version="1.0" standalone="no"?>
<svg xmlns="http://www.w3.org/2000/svg" viewBox="0 0 133 67" width="133" height="67"><g fill="#305699" color="#305699" transform="translate(48.969 0) scale(0.7) "><svg width="50.0" height="50.0" x="0.0" y="0.0" viewBox="0 0 50 50"><polygon points="45.91,26.078 40.467,26.078 40.467,44.177 25.517,44.177 25.517,34.844 16.105,34.844 16.105,44.177 8.73,44.177   8.732,26.078 3.687,26.078 24.596,5.168 "></polygon></svg></g><line x1="50.018000000000015" y1="41" x2="82.918" y2="41" stroke="#0b005d" stroke-linecap="round"></line><path fill="#0b005d" fill-rule="nonzero" d="M0 15.19L5.45 0L7.30 0L12.74 15.19L10.92 15.19L9.70 11.64L3.10 11.64L1.85 15.19L0 15.19ZM9.17 10.15L6.36 1.99L3.58 10.15L9.17 10.15ZM21.22 5.04L20.69 5.93Q19.49 5.30 18.07 5.30L18.07 5.30Q17.11 5.30 16.57 5.72Q16.03 6.14 16.03 6.86L16.03 6.86Q16.03 7.63 16.52 8.05Q17.02 8.47 18.41 8.88L18.41 8.88Q20.38 9.48 21.14 10.22Q21.91 10.97 21.91 12.31L21.91 12.31Q21.91 13.73 20.84 14.60Q19.78 15.48 18.10 15.48L18.10 15.48Q15.89 15.48 14.26 14.28L14.26 14.28Q14.33 14.16 14.50 13.87L14.50 13.87Q14.66 13.56 14.78 13.39L14.78 13.39Q16.18 14.16 17.78 14.16L17.78 14.16Q20.30 14.16 20.30 12.26L20.30 12.26Q20.30 11.50 19.76 11.06Q19.22 10.63 17.76 10.25L17.76 10.25Q14.35 9.29 14.35 6.91L14.35 6.91Q14.35 5.64 15.35 4.82Q16.34 4.01 17.90 4.01L17.90 4.01Q19.75 4.01 21.22 5.04L21.22 5.04ZM30.94 5.04L30.41 5.93Q29.21 5.30 27.79 5.30L27.79 5.30Q26.83 5.30 26.29 5.72Q25.75 6.14 25.75 6.86L25.75 6.86Q25.75 7.63 26.24 8.05Q26.74 8.47 28.13 8.88L28.13 8.88Q30.10 9.48 30.86 10.22Q31.63 10.97 31.63 12.31L31.63 12.31Q31.63 13.73 30.56 14.60Q29.50 15.48 27.82 15.48L27.82 15.48Q25.61 15.48 23.98 14.28L23.98 14.28Q24.05 14.16 24.22 13.87L24.22 13.87Q24.38 13.56 24.50 13.39L24.50 13.39Q25.90 14.16 27.50 14.16L27.50 14.16Q30.02 14.16 30.02 12.26L30.02 12.26Q30.02 11.50 29.48 11.06Q28.94 10.63 27.48 10.25L27.48 10.25Q24.07 9.29 24.07 6.91L24.07 6.91Q24.07 5.64 25.07 4.82Q26.06 4.01 27.62 4.01L27.62 4.01Q29.47 4.01 30.94 5.04L30.94 5.04ZM43.27 9.77L43.27 10.30L35.50 10.30Q35.59 12.05 36.71 13.10Q37.82 14.16 39.60 14.16L39.60 14.16Q41.09 14.16 42.50 13.27L42.50 13.27L43.06 14.23Q41.47 15.48 39.24 15.48L39.24 15.48Q36.65 15.48 35.11 13.78L35.11 13.78Q33.70 12.24 33.70 9.79L33.70 9.79Q33.70 7.25 35.21 5.54L35.21 5.54Q36.58 4.01 38.59 4.01L38.59 4.01Q41.02 4.01 42.29 5.98L42.29 5.98Q43.27 7.51 43.27 9.77L43.27 9.77ZM35.47 9L35.47 9L41.62 9Q41.54 7.25 40.76 6.26Q39.98 5.28 38.62 5.28L38.62 5.28Q37.32 5.28 36.44 6.31Q35.57 7.34 35.47 9ZM52.03 5.62L48.70 5.62L48.67 12.43Q48.67 14.18 50.09 14.18L50.09 14.18Q50.88 14.18 51.65 13.78L51.65 13.78L52.22 14.66Q51.05 15.48 49.75 15.48L49.75 15.48Q48.48 15.48 47.78 14.69Q47.09 13.90 47.09 12.48L47.09 12.48L47.09 5.62L45.43 5.62L45.43 4.30L47.11 4.30L47.11 1.92L48.70 1.10L48.70 4.30L52.03 4.30L52.03 5.62ZM61.34 5.04L60.82 5.93Q59.62 5.30 58.20 5.30L58.20 5.30Q57.24 5.30 56.70 5.72Q56.16 6.14 56.16 6.86L56.16 6.86Q56.16 7.63 56.65 8.05Q57.14 8.47 58.54 8.88L58.54 8.88Q60.50 9.48 61.27 10.22Q62.04 10.97 62.04 12.31L62.04 12.31Q62.04 13.73 60.97 14.60Q59.90 15.48 58.22 15.48L58.22 15.48Q56.02 15.48 54.38 14.28L54.38 14.28Q54.46 14.16 54.62 13.87L54.62 13.87Q54.79 13.56 54.91 13.39L54.91 13.39Q56.30 14.16 57.91 14.16L57.91 14.16Q60.43 14.16 60.43 12.26L60.43 12.26Q60.43 11.50 59.89 11.06Q59.35 10.63 57.89 10.25L57.89 10.25Q54.48 9.29 54.48 6.91L54.48 6.91Q54.48 5.64 55.48 4.82Q56.47 4.01 58.03 4.01L58.03 4.01Q59.88 4.01 61.34 5.04L61.34 5.04ZM72.89 2.57L72.89 2.57L72.89 15.19L71.11 15.19L71.11 0L73.32 0Q74.95 3.77 77.42 11.09L77.42 11.09Q77.93 12.62 78.22 13.39L78.22 13.39Q78.50 12.53 78.72 11.90L78.72 11.90Q81.41 4.01 83.16 0L83.16 0L85.32 0L85.32 15.19L83.54 15.19L83.54 2.54Q82.30 6.58 79.03 15.19L79.03 15.19L77.42 15.19Q74.57 8.18 72.89 2.57ZM97.34 8.57L97.34 15.19L96.14 15.19L95.90 14.02Q94.44 15.48 92.26 15.48L92.26 15.48Q90.60 15.48 89.62 14.56Q88.63 13.63 88.63 12.10L88.63 12.10Q88.63 8.35 94.10 8.35L94.10 8.35L95.76 8.35L95.76 8.21Q95.76 5.35 92.98 5.35L92.98 5.35Q91.39 5.35 89.93 6.41L89.93 6.41L89.40 5.52Q91.06 4.01 93.43 4.01L93.43 4.01Q95.33 4.01 96.34 5.18Q97.34 6.36 97.34 8.57L97.34 8.57ZM95.76 12.48L95.76 9.53L94.30 9.53Q90.36 9.53 90.36 11.95L90.36 11.95Q90.36 12.98 90.97 13.57Q91.58 14.16 92.69 14.16L92.69 14.16Q93.65 14.16 94.54 13.68Q95.42 13.20 95.76 12.48L95.76 12.48ZM108.72 5.40L108.72 5.40L108.96 4.30L110.21 4.30L110.21 14.30Q110.21 19.78 105.43 19.78L105.43 19.78Q103.18 19.78 101.45 18.26L101.45 18.26L102.00 17.38Q103.49 18.41 105.17 18.41L105.17 18.41Q106.94 18.41 107.78 17.42Q108.62 16.44 108.62 14.30L108.62 14.30L108.62 14.09Q107.45 15.48 105.41 15.48L105.41 15.48Q103.03 15.48 101.64 13.70L101.64 13.70Q100.44 12.17 100.44 9.89L100.44 9.89Q100.44 7.01 102.12 5.38L102.12 5.38Q103.51 4.01 105.55 4.01L105.55 4.01Q106.46 4.01 107.36 4.40Q108.26 4.80 108.72 5.40ZM108.62 12.29L108.62 12.29L108.62 7.08Q108.31 6.34 107.50 5.82Q106.68 5.30 105.77 5.30L105.77 5.30Q104.18 5.30 103.18 6.54Q102.17 7.78 102.17 9.72L102.17 9.72Q102.17 11.93 103.27 13.15L103.27 13.15Q104.23 14.16 105.67 14.16L105.67 14.16Q106.63 14.16 107.44 13.64Q108.24 13.13 108.62 12.29ZM122.81 9.77L122.81 10.30L115.03 10.30Q115.13 12.05 116.24 13.10Q117.36 14.16 119.14 14.16L119.14 14.16Q120.62 14.16 122.04 13.27L122.04 13.27L122.59 14.23Q121.01 15.48 118.78 15.48L118.78 15.48Q116.18 15.48 114.65 13.78L114.65 13.78Q113.23 12.24 113.23 9.79L113.23 9.79Q113.23 7.25 114.74 5.54L114.74 5.54Q116.11 4.01 118.13 4.01L118.13 4.01Q120.55 4.01 121.82 5.98L121.82 5.98Q122.81 7.51 122.81 9.77L122.81 9.77ZM115.01 9L115.01 9L121.15 9Q121.08 7.25 120.30 6.26Q119.52 5.28 118.15 5.28L118.15 5.28Q116.86 5.28 115.98 6.31Q115.10 7.34 115.01 9ZM132.94 5.23L132.94 5.23L131.62 6.14Q130.80 5.42 129.86 5.42L129.86 5.42Q128.50 5.42 127.44 6.84L127.44 6.84L127.44 15.19L125.83 15.19L125.83 4.30L127.20 4.30L127.34 5.45L127.39 5.45Q128.81 4.01 130.30 4.01L130.30 4.01Q132.05 4.01 132.94 5.23Z" transform="translate(0, 47)"></path></svg>